<svg width="12" height="12" viewBox="0 0 12 12" fill="none" xmlns="http://www.w3.org/2000/svg">
<g id="bubble-chat-notification" clip-path="url(#clip0_300_5044)">
<g id="elements">
<path id="Vector" d="M11 5.7833C11 8.42487 8.76111 10.5667 6 10.5667C5.67534 10.5671 5.35162 10.5371 5.03271 10.4772C4.80316 10.4341 4.68839 10.4125 4.60826 10.4247C4.52814 10.437 4.41459 10.4974 4.18749 10.6181C3.54507 10.9598 2.79598 11.0804 2.07556 10.9464C2.34937 10.6096 2.53637 10.2055 2.61889 9.77233C2.66889 9.50736 2.545 9.24993 2.35944 9.06149C1.51667 8.20571 1 7.05248 1 5.7833C1 3.14172 3.23889 0.999939 6 0.999939C6.34246 0.999939 6.67688 1.03289 7 1.09565" stroke="#84818A" stroke-width="0.9" stroke-linecap="round" stroke-linejoin="round"/>
<path id="Vector_2" d="M11.5 2.74988C11.5 3.71638 10.7165 4.49988 9.75 4.49988C8.7835 4.49988 8 3.71638 8 2.74988C8 1.78338 8.7835 0.999878 9.75 0.999878C10.7165 0.999878 11.5 1.78338 11.5 2.74988Z" stroke="#84818A" stroke-width="0.9"/>
<path id="Vector_3" d="M5.99776 5.99994H6.00224M7.99551 5.99994H8M4 5.99994H4.00449" stroke="#84818A" stroke-width="1.2" stroke-linecap="round" stroke-linejoin="round"/>
</g>
</g>
<defs>
<clipPath id="clip0_300_5044">
<rect width="12" height="12" fill="white"/>
</clipPath>
</defs>
</svg>
