<svg width="16" height="16" viewBox="0 0 16 16" fill="none" xmlns="http://www.w3.org/2000/svg">
<g id="coins-dollar" clip-path="url(#clip0_300_4129)">
<g id="elements">
<path id="Subtract" d="M1.99012 6.80335C2.16985 6.58387 2.25971 6.47412 2.34703 6.5054C2.43435 6.53667 2.43408 6.68892 2.43356 6.99343C2.43355 6.99728 2.43355 7.00114 2.43355 7.005C2.43355 10.6288 5.37122 13.5665 8.99501 13.5665C8.99887 13.5665 9.00273 13.5665 9.00658 13.5665C9.31109 13.5659 9.46334 13.5657 9.49461 13.653C9.52589 13.7403 9.41615 13.8302 9.19666 14.0099C8.31365 14.733 7.18466 15.1668 5.95434 15.1668C3.12601 15.1668 0.833191 12.874 0.833191 10.0457C0.833191 8.81535 1.26705 7.68636 1.99012 6.80335Z" fill="#3C8EF9"/>
<path id="Subtract_2" fill-rule="evenodd" clip-rule="evenodd" d="M9.33318 0.833466C6.11152 0.833466 3.49985 3.44514 3.49985 6.6668C3.49985 9.88846 6.11152 12.5001 9.33318 12.5001C12.5548 12.5001 15.1665 9.88846 15.1665 6.6668C15.1665 3.44514 12.5548 0.833466 9.33318 0.833466ZM9.82324 4.00014C9.82324 3.724 9.59938 3.50014 9.32324 3.50014C9.0471 3.50014 8.82324 3.724 8.82324 4.00014V4.16103C8.14181 4.34969 7.5918 4.91492 7.5918 5.6683C7.5918 6.0619 7.70752 6.46186 8.05996 6.74287C8.3867 7.0034 8.83175 7.09011 9.32324 7.09011C9.73241 7.09011 9.93249 7.16395 10.0252 7.23556C10.0891 7.28486 10.1666 7.38211 10.1666 7.66555C10.1666 7.89941 10.0854 8.01133 9.98344 8.08384C9.85611 8.17436 9.63658 8.241 9.32324 8.241C8.82285 8.241 8.53453 7.95639 8.48846 7.74534C8.42955 7.47555 8.1631 7.3046 7.89331 7.3635C7.62352 7.4224 7.45257 7.68886 7.51147 7.95865C7.65019 8.59403 8.19238 9.02971 8.82324 9.18158V9.33348C8.82324 9.60962 9.0471 9.83348 9.32324 9.83348C9.59938 9.83348 9.82324 9.60962 9.82324 9.33348V9.19747C10.0869 9.14881 10.3425 9.05554 10.5629 8.89885C10.9471 8.62567 11.1666 8.19987 11.1666 7.66555C11.1666 7.18082 11.0202 6.74035 10.6363 6.44397C10.2813 6.1699 9.80967 6.09011 9.32324 6.09011C8.91913 6.09011 8.74846 6.01288 8.68338 5.96099C8.644 5.92959 8.5918 5.86864 8.5918 5.6683C8.5918 5.41195 8.85352 5.09285 9.32324 5.09285C9.7355 5.09285 9.99959 5.34854 10.0459 5.57987C10.1002 5.85063 10.3637 6.02614 10.6344 5.97188C10.9052 5.91762 11.0807 5.65414 11.0264 5.38338C10.9037 4.77072 10.4162 4.3232 9.82324 4.16025V4.00014Z" fill="#3C8EF9"/>
</g>
</g>
<defs>
<clipPath id="clip0_300_4129">
<rect width="16" height="16" fill="white"/>
</clipPath>
</defs>
</svg>
