<svg width="16" height="16" viewBox="0 0 16 16" fill="none" xmlns="http://www.w3.org/2000/svg">
<g id="dollar-square">
<g id="elements">
<path id="Subtract" fill-rule="evenodd" clip-rule="evenodd" d="M8.03418 1.16666H8.03417H7.96583H7.96583C6.58487 1.16665 5.50251 1.16664 4.65053 1.27014C3.77988 1.3759 3.08305 1.59606 2.51045 2.0851C2.35775 2.21552 2.21554 2.35774 2.08512 2.51044C1.59608 3.08303 1.37591 3.77987 1.27015 4.65051C1.16666 5.50249 1.16667 6.58486 1.16667 7.96581V7.96582V8.03416V8.03417C1.16667 9.41512 1.16666 10.4975 1.27015 11.3495C1.37591 12.2201 1.59608 12.9169 2.08512 13.4895C2.21554 13.6422 2.35775 13.7845 2.51045 13.9149C3.08305 14.4039 3.77988 14.6241 4.65053 14.7298C5.50251 14.8333 6.58488 14.8333 7.96583 14.8333H8.03417C9.41513 14.8333 10.4975 14.8333 11.3495 14.7298C12.2201 14.6241 12.917 14.4039 13.4896 13.9149C13.6423 13.7845 13.7845 13.6422 13.9149 13.4895C14.4039 12.9169 14.6241 12.2201 14.7299 11.3495C14.8334 10.4975 14.8333 9.41512 14.8333 8.03416V7.96582C14.8333 6.58486 14.8334 5.50249 14.7299 4.65051C14.6241 3.77987 14.4039 3.08303 13.9149 2.51044C13.7845 2.35774 13.6423 2.21552 13.4896 2.0851C12.917 1.59606 12.2201 1.3759 11.3495 1.27014C10.4975 1.16664 9.41514 1.16665 8.03418 1.16666ZM8.50001 4.66666C8.50001 4.39051 8.27615 4.16666 8.00001 4.16666C7.72386 4.16666 7.50001 4.39051 7.50001 4.66666V4.94943C7.08984 5.01923 6.71338 5.17413 6.40798 5.39806C5.98213 5.71032 5.66667 6.18305 5.66667 6.75185C5.66667 7.25222 5.84625 7.71464 6.30518 8.02188C6.7213 8.30046 7.30146 8.40411 8 8.40411C8.63879 8.40411 9.01863 8.50002 9.22806 8.63576C9.39202 8.74203 9.50001 8.90265 9.50001 9.24842C9.50001 9.53893 9.38074 9.71833 9.15794 9.85133C8.90478 10.0025 8.50722 10.0927 8 10.0927C7.53349 10.0927 7.13359 9.96474 6.86472 9.78402C6.59272 9.60119 6.50001 9.40236 6.50001 9.24842C6.50001 8.97228 6.27615 8.74842 6.00001 8.74842C5.72386 8.74842 5.50001 8.97228 5.50001 9.24842C5.50001 9.83692 5.85501 10.3102 6.30687 10.614C6.6406 10.8383 7.05241 10.9911 7.5 11.0566V11.3333C7.5 11.6095 7.72386 11.8333 8 11.8333C8.27615 11.8333 8.50001 11.6095 8.50001 11.3333V11.0671C8.92442 11.0217 9.33161 10.9123 9.6705 10.71C10.1716 10.4109 10.5 9.91813 10.5 9.24842C10.5 8.63397 10.2747 8.12243 9.77195 7.79661C9.31471 7.50025 8.69455 7.40411 8 7.40411C7.36522 7.40411 7.02871 7.30285 6.86149 7.19091C6.7371 7.10763 6.66667 6.99392 6.66667 6.75185C6.66667 6.5782 6.76162 6.37879 6.9993 6.2045C7.2367 6.03043 7.58887 5.90754 8 5.90754C8.41114 5.90754 8.76331 6.03043 9.00071 6.2045C9.2384 6.37879 9.33334 6.5782 9.33334 6.75185C9.33334 7.02799 9.5572 7.25185 9.83334 7.25185C10.1095 7.25185 10.3333 7.02799 10.3333 6.75185C10.3333 6.18305 10.0179 5.71032 9.59203 5.39806C9.28663 5.17413 8.91017 5.01923 8.50001 4.94943V4.66666Z" fill="#34C759"/>
</g>
</g>
</svg>
