<svg width="12" height="12" viewBox="0 0 12 12" fill="none" xmlns="http://www.w3.org/2000/svg">
<g id="dollar-circle">
<g id="elements">
<path id="Subtract" fill-rule="evenodd" clip-rule="evenodd" d="M6 1.07292C3.27884 1.07292 1.07291 3.27885 1.07291 6C1.07291 8.72116 3.27884 10.9271 6 10.9271C8.72115 10.9271 10.9271 8.72116 10.9271 6C10.9271 3.27885 8.72115 1.07292 6 1.07292ZM6.34375 3.70834C6.34375 3.51849 6.18985 3.36459 6 3.36459C5.81015 3.36459 5.65625 3.51849 5.65625 3.70834V3.90275C5.37426 3.95073 5.11544 4.05722 4.90548 4.21118C4.61271 4.42586 4.39583 4.75086 4.39583 5.14191C4.39583 5.48591 4.51929 5.80383 4.83481 6.01506C5.12089 6.20658 5.51975 6.27784 6 6.27784C6.43916 6.27784 6.7003 6.34378 6.84428 6.4371C6.95701 6.51016 7.03125 6.62058 7.03125 6.8583C7.03125 7.05803 6.94925 7.18137 6.79608 7.2728C6.62203 7.3767 6.34871 7.43876 6 7.43876C5.67927 7.43876 5.40433 7.35077 5.21949 7.22652C5.03249 7.10083 4.96875 6.96414 4.96875 6.8583C4.96875 6.66845 4.81485 6.51455 4.625 6.51455C4.43515 6.51455 4.28125 6.66845 4.28125 6.8583C4.28125 7.26289 4.52531 7.5883 4.83596 7.79711C5.06541 7.95133 5.34853 8.0564 5.65625 8.10145V8.29167C5.65625 8.48152 5.81015 8.63542 6 8.63542C6.18985 8.63542 6.34375 8.48152 6.34375 8.29167V8.10864C6.63553 8.07742 6.91547 8.00221 7.14846 7.86312C7.49294 7.65749 7.71875 7.31873 7.71875 6.8583C7.71875 6.43587 7.56382 6.08419 7.21821 5.86018C6.90386 5.65643 6.4775 5.59034 6 5.59034C5.56358 5.59034 5.33223 5.52072 5.21727 5.44376C5.13175 5.38651 5.08333 5.30833 5.08333 5.14191C5.08333 5.02253 5.1486 4.88543 5.31202 4.7656C5.47522 4.64593 5.71734 4.56145 6 4.56145C6.28265 4.56145 6.52477 4.64593 6.68798 4.7656C6.85139 4.88543 6.91666 5.02253 6.91666 5.14191C6.91666 5.33176 7.07057 5.48566 7.26041 5.48566C7.45026 5.48566 7.60416 5.33176 7.60416 5.14191C7.60416 4.75086 7.38728 4.42586 7.09451 4.21118C6.88455 4.05722 6.62574 3.95073 6.34375 3.90275V3.70834Z" fill="#9D4EDD"/>
</g>
</g>
</svg>
