<svg width="10" height="8" viewBox="0 0 10 8" fill="none" xmlns="http://www.w3.org/2000/svg">
<g id="Gmail_icon_(2020) 1" clip-path="url(#clip0_65_30)">
<path id="Vector" d="M0.681818 8H2.27273V3.87879L0 2.06061V7.27273C0 7.67515 0.305682 8 0.681818 8Z" fill="#4285F4"/>
<path id="Vector_2" d="M7.72726 8H9.31817C9.69545 8 9.99999 7.67394 9.99999 7.27273V2.06061L7.72726 3.87879" fill="#34A853"/>
<path id="Vector_3" d="M7.72726 0.727272V3.87879L9.99999 2.06061V1.09091C9.99999 0.191515 9.03749 -0.321213 8.36363 0.218181" fill="#FBBC04"/>
<path id="Vector_4" d="M2.27274 3.87879V0.727272L5.00001 2.90909L7.72728 0.727272V3.87879L5.00001 6.06061" fill="#EA4335"/>
<path id="Vector_5" d="M0 1.09091V2.06061L2.27273 3.87879V0.727272L1.63636 0.218181C0.961364 -0.321213 0 0.191515 0 1.09091Z" fill="#C5221F"/>
</g>
<defs>
<clipPath id="clip0_65_30">
<rect width="10" height="8" fill="white"/>
</clipPath>
</defs>
</svg>
