<svg width="10" height="10" viewBox="0 0 10 10" fill="none" xmlns="http://www.w3.org/2000/svg">
<g id="Menu-Layout / more-hor" clip-path="url(#clip0_300_4264)">
<path id="More hor." fill-rule="evenodd" clip-rule="evenodd" d="M8.72571 6.25C8.97293 6.25 9.21461 6.17669 9.42017 6.03934C9.62573 5.90199 9.78595 5.70676 9.88056 5.47835C9.97517 5.24995 9.99992 4.99861 9.95169 4.75614C9.90346 4.51366 9.78441 4.29093 9.60959 4.11612C9.43478 3.9413 9.21205 3.82225 8.96957 3.77402C8.7271 3.72579 8.47576 3.75054 8.24735 3.84515C8.01895 3.93976 7.82372 4.09998 7.68637 4.30554C7.54902 4.5111 7.47571 4.75277 7.47571 5C7.47561 5.16418 7.50788 5.32677 7.57067 5.47847C7.63345 5.63017 7.72552 5.768 7.84162 5.88409C7.95771 6.00019 8.09554 6.09226 8.24724 6.15504C8.39894 6.21783 8.56153 6.25009 8.72571 6.25ZM4.97571 6.25C5.22294 6.25 5.46461 6.17669 5.67017 6.03934C5.87573 5.90199 6.03595 5.70676 6.13056 5.47835C6.22517 5.24995 6.24992 4.99861 6.20169 4.75614C6.15346 4.51366 6.03441 4.29093 5.85959 4.11612C5.68478 3.9413 5.46205 3.82225 5.21957 3.77402C4.9771 3.72579 4.72576 3.75054 4.49735 3.84515C4.26895 3.93976 4.07372 4.09998 3.93637 4.30554C3.79902 4.5111 3.72571 4.75277 3.72571 5C3.72561 5.16418 3.75788 5.32677 3.82067 5.47847C3.88345 5.63017 3.97552 5.768 4.09162 5.88409C4.20771 6.00019 4.34554 6.09226 4.49724 6.15504C4.64894 6.21783 4.81153 6.25009 4.97571 6.25ZM1.22571 6.25C1.47293 6.25 1.71461 6.17669 1.92017 6.03934C2.12573 5.90199 2.28595 5.70676 2.38056 5.47835C2.47517 5.24995 2.49992 4.99861 2.45169 4.75614C2.40346 4.51366 2.28441 4.29093 2.10959 4.11612C1.93478 3.9413 1.71205 3.82225 1.46957 3.77402C1.2271 3.72579 0.975762 3.75054 0.747354 3.84515C0.518946 3.93976 0.323723 4.09998 0.186371 4.30554C0.0490194 4.5111 -0.0242918 4.75277 -0.0242918 5C-0.0243857 5.16418 0.00788244 5.32677 0.0706676 5.47847C0.133453 5.63017 0.225523 5.768 0.341615 5.88409C0.457707 6.00019 0.595544 6.09226 0.747243 6.15504C0.898942 6.21783 1.06153 6.25009 1.22571 6.25Z" fill="#444A58"/>
</g>
<defs>
<clipPath id="clip0_300_4264">
<rect width="10" height="10" fill="white"/>
</clipPath>
</defs>
</svg>
