<svg width="16" height="14" viewBox="0 0 16 14" fill="none" xmlns="http://www.w3.org/2000/svg">
<g id="Group 10">
<path id="Fill 1" fill-rule="evenodd" clip-rule="evenodd" d="M6.4001 11.494H1.14926C0.804261 11.494 0.524261 11.214 0.524261 10.869C0.524261 10.524 0.804261 10.244 1.14926 10.244H6.4001C6.7451 10.244 7.0251 10.524 7.0251 10.869C7.0251 11.214 6.7451 11.494 6.4001 11.494" fill="#84818A"/>
<path id="Fill 3" fill-rule="evenodd" clip-rule="evenodd" d="M13.9924 3.41699H8.74243C8.39743 3.41699 8.11743 3.13699 8.11743 2.79199C8.11743 2.44699 8.39743 2.16699 8.74243 2.16699H13.9924C14.3374 2.16699 14.6174 2.44699 14.6174 2.79199C14.6174 3.13699 14.3374 3.41699 13.9924 3.41699" fill="#84818A"/>
<g id="Group 7">
<mask id="mask0_65_65" style="mask-type:luminance" maskUnits="userSpaceOnUse" x="0" y="0" width="6" height="6">
<path id="Clip 6" fill-rule="evenodd" clip-rule="evenodd" d="M0.5 0.166992H5.68817V5.32666H0.5V0.166992Z" fill="white"/>
</mask>
<g mask="url(#mask0_65_65)">
<path id="Fill 5" fill-rule="evenodd" clip-rule="evenodd" d="M3.09401 1.41669C2.35318 1.41669 1.74985 2.01335 1.74985 2.74752C1.74985 3.48085 2.35318 4.07669 3.09401 4.07669C3.83568 4.07669 4.43818 3.48085 4.43818 2.74752C4.43818 2.01335 3.83568 1.41669 3.09401 1.41669M3.09401 5.32669C1.66401 5.32669 0.499847 4.17002 0.499847 2.74752C0.499847 1.32502 1.66401 0.166687 3.09401 0.166687C4.52485 0.166687 5.68818 1.32502 5.68818 2.74752C5.68818 4.17002 4.52485 5.32669 3.09401 5.32669" fill="#84818A"/>
</g>
</g>
<path id="Fill 8" fill-rule="evenodd" clip-rule="evenodd" d="M12.4897 9.50665C11.7481 9.50665 11.1447 10.1033 11.1447 10.8367C11.1447 11.5708 11.7481 12.1667 12.4897 12.1667C13.2306 12.1667 13.8331 11.5708 13.8331 10.8367C13.8331 10.1033 13.2306 9.50665 12.4897 9.50665M12.4897 13.4167C11.0589 13.4167 9.89474 12.2592 9.89474 10.8367C9.89474 9.41415 11.0589 8.25665 12.4897 8.25665C13.9197 8.25665 15.0831 9.41415 15.0831 10.8367C15.0831 12.2592 13.9197 13.4167 12.4897 13.4167" fill="#84818A"/>
</g>
</svg>
