<svg width="11" height="12" viewBox="0 0 11 12" fill="none" xmlns="http://www.w3.org/2000/svg">
<g id="message-02">
<g id="elements">
<path id="Subtract" fill-rule="evenodd" clip-rule="evenodd" d="M4.48234 1.33541C5.15025 1.29101 5.84838 1.29092 6.51766 1.33541C8.61071 1.47454 10.2714 3.16409 10.4079 5.27691C10.4335 5.67218 10.4335 6.08104 10.4079 6.47632C10.2714 8.58913 8.61071 10.2787 6.51766 10.4178C5.84838 10.4623 5.15025 10.4622 4.48234 10.4178C4.22341 10.4006 3.94156 10.3394 3.69343 10.2372C3.5843 10.1922 3.51022 10.1618 3.45602 10.142C3.41875 10.1676 3.36924 10.204 3.29716 10.2571C2.93396 10.5249 2.47542 10.7128 1.8247 10.697L1.80374 10.6965C1.67821 10.6935 1.5444 10.6903 1.43528 10.6692C1.30384 10.6437 1.14123 10.5802 1.03945 10.4067C0.928686 10.2178 0.973098 10.0268 1.01607 9.90654C1.05662 9.79303 1.12692 9.65989 1.19873 9.52388L1.20858 9.50523C1.42231 9.1002 1.48185 8.76921 1.36757 8.54852C0.986092 7.97267 0.642913 7.26299 0.592073 6.47632C0.566528 6.08104 0.566528 5.67218 0.592073 5.27691C0.728617 3.16409 2.38929 1.47454 4.48234 1.33541ZM3.66666 5.54166C3.41353 5.54166 3.20833 5.74686 3.20833 5.99999C3.20833 6.25313 3.41353 6.45833 3.66666 6.45833H3.67078C3.92391 6.45833 4.12911 6.25313 4.12911 5.99999C4.12911 5.74686 3.92391 5.54166 3.67078 5.54166H3.66666ZM5.49794 5.54166C5.24481 5.54166 5.03961 5.74686 5.03961 5.99999C5.03961 6.25313 5.24481 6.45833 5.49794 6.45833H5.50205C5.75518 6.45833 5.96039 6.25313 5.96039 5.99999C5.96039 5.74686 5.75518 5.54166 5.50205 5.54166H5.49794ZM7.32922 5.54166C7.07609 5.54166 6.87089 5.74686 6.87089 5.99999C6.87089 6.25313 7.07609 6.45833 7.32922 6.45833H7.33333C7.58646 6.45833 7.79166 6.25313 7.79166 5.99999C7.79166 5.74686 7.58646 5.54166 7.33333 5.54166H7.32922Z" fill="#019939"/>
</g>
</g>
</svg>
