<svg width="16" height="16" viewBox="0 0 16 16" fill="none" xmlns="http://www.w3.org/2000/svg">
<g id="money-security">
<g id="elements">
<path id="Subtract" fill-rule="evenodd" clip-rule="evenodd" d="M7.99936 0.833344C6.87852 0.833344 5.96729 1.21197 5.17254 1.62371C4.93236 1.74814 4.70925 1.87121 4.49605 1.98883L4.49604 1.98883L4.49604 1.98883C3.97441 2.27658 3.5121 2.53161 3.00439 2.6936L2.98744 2.69901C2.68925 2.79415 2.44205 2.87302 2.25476 2.94641C2.07848 3.01548 1.86898 3.11014 1.72034 3.27534C1.58682 3.42373 1.51823 3.59033 1.47275 3.74967C1.43146 3.89433 1.39985 4.06975 1.36599 4.25763L1.36231 4.27804C0.537018 8.85517 2.34168 13.1914 6.74865 14.8786L6.77059 14.887L6.77059 14.887C7.20376 15.0529 7.50084 15.1667 8.00156 15.1667C8.50228 15.1667 8.79934 15.0529 9.23249 14.887L9.25442 14.8786C13.6613 13.1913 15.4641 8.85497 14.6386 4.27801L14.6349 4.25757L14.6349 4.25756L14.6349 4.25754C14.601 4.06965 14.5694 3.89422 14.5281 3.74957C14.4826 3.5902 14.414 3.42359 14.2805 3.27519C14.1318 3.11 13.9223 3.01537 13.746 2.94632C13.5587 2.87296 13.3116 2.79414 13.0134 2.69906L13.0134 2.69906L13.0134 2.69905L12.9964 2.69364C12.4884 2.53164 12.0257 2.27654 11.5037 1.98874C11.2904 1.87115 11.0672 1.74809 10.827 1.6237C10.0318 1.21198 9.12022 0.833344 7.99936 0.833344ZM8.5 4.66668C8.5 4.39053 8.27614 4.16668 8 4.16668C7.72386 4.16668 7.5 4.39053 7.5 4.66668V4.94945C7.08983 5.01925 6.71338 5.17415 6.40798 5.39808C5.98213 5.71034 5.66667 6.18307 5.66667 6.75187C5.66667 7.25224 5.84624 7.71466 6.30518 8.0219C6.7213 8.30048 7.30146 8.40413 8 8.40413C8.63878 8.40413 9.01863 8.50004 9.22805 8.63578C9.39201 8.74205 9.5 8.90267 9.5 9.24844C9.5 9.53895 9.38074 9.71835 9.15793 9.85135C8.90477 10.0025 8.50722 10.0927 8 10.0927C7.53349 10.0927 7.13358 9.96476 6.86471 9.78404C6.59271 9.60121 6.5 9.40238 6.5 9.24844C6.5 8.9723 6.27614 8.74844 6 8.74844C5.72386 8.74844 5.5 8.9723 5.5 9.24844C5.5 9.83694 5.855 10.3103 6.30686 10.614C6.6406 10.8383 7.0524 10.9911 7.5 11.0567V11.3333C7.5 11.6095 7.72386 11.8333 8 11.8333C8.27614 11.8333 8.5 11.6095 8.5 11.3333V11.0671C8.92441 11.0217 9.3316 10.9123 9.67049 10.71C10.1715 10.4109 10.5 9.91815 10.5 9.24844C10.5 8.63399 10.2747 8.12245 9.77195 7.79663C9.3147 7.50027 8.69455 7.40413 8 7.40413C7.36521 7.40413 7.0287 7.30287 6.86149 7.19093C6.73709 7.10765 6.66667 6.99394 6.66667 6.75187C6.66667 6.57823 6.76161 6.37881 6.9993 6.20452C7.23669 6.03045 7.58886 5.90756 8 5.90756C8.41114 5.90756 8.76331 6.03045 9.0007 6.20452C9.23839 6.37881 9.33333 6.57823 9.33333 6.75187C9.33333 7.02801 9.55719 7.25187 9.83333 7.25187C10.1095 7.25187 10.3333 7.02801 10.3333 6.75187C10.3333 6.18307 10.0179 5.71034 9.59202 5.39808C9.28662 5.17415 8.91017 5.01925 8.5 4.94945V4.66668Z" fill="#9D4EDD"/>
</g>
</g>
</svg>
