<svg width="24" height="25" viewBox="0 0 24 25" fill="none" xmlns="http://www.w3.org/2000/svg">
<g id="Huge-icon/device/solid/notification">
<g id="notification">
<path id="combo shape" fill-rule="evenodd" clip-rule="evenodd" d="M12 3.5C8.77095 3.5 6.05382 5.99085 5.67964 9.29403L5.33476 12.3385C5.24906 13.095 4.94246 13.8069 4.45549 14.38C3.42209 15.5964 4.26081 17.5 5.83014 17.5H18.1699C19.7392 17.5 20.5779 15.5964 19.5445 14.38C19.0575 13.8069 18.7509 13.095 18.6652 12.3385L18.3204 9.29403C17.9462 5.99085 15.2291 3.5 12 3.5ZM14.9721 19.5715C14.5147 20.6992 13.3565 21.5 12 21.5C10.6435 21.5 9.48526 20.6992 9.02789 19.5715C9.00883 19.5245 9 19.474 9 19.4233C9 19.1895 9.18951 19 9.42329 19H14.5767C14.8105 19 15 19.1895 15 19.4233C15 19.474 14.9912 19.5245 14.9721 19.5715Z" fill="#B0B7C3"/>
</g>
</g>
</svg>
