<svg width="24" height="24" viewBox="0 0 24 24" fill="none" xmlns="http://www.w3.org/2000/svg">
<g id="online-support">
<path id="Vector" d="M12.25 2C7.397 2 4.5 4.71 4.5 9.25V11.0107C3.8735 11.4752 3.5 12.201 3.5 13C3.5 14.1785 4.31945 15.1686 5.41895 15.4316C6.41545 19.3831 9.013 22 12 22C12.414 22 12.75 21.6645 12.75 21.25C12.75 20.8355 12.414 20.5 12 20.5C9.647 20.5 7.49367 18.0708 6.76367 14.5928C6.69067 14.2458 6.38527 13.9971 6.03027 13.9971C6.01327 13.9971 5.9917 13.9975 5.9707 13.999C5.4327 13.984 5 13.5415 5 13C5 12.6175 5.21927 12.2769 5.57227 12.1094C5.83377 11.9849 6 11.7211 6 11.4316V10.0869C7.9275 9.58091 9.13432 8.55201 9.77832 7.83301C10.5988 8.33351 12.2155 9 15 9C16.0734 9 17.0048 8.90345 17.748 8.78223C17.8657 9.13457 18 9.65093 18 10.25V15.25C18 16.5017 17.0017 17.5 15.75 17.5H14.8301C14.6882 17.201 14.4645 16.9483 14.1848 16.7713C13.9051 16.5943 13.581 16.5002 13.25 16.5C13.0202 16.5 12.7926 16.5453 12.5803 16.6332C12.368 16.7212 12.1751 16.8501 12.0126 17.0126C11.8501 17.1751 11.7212 17.368 11.6332 17.5803C11.5453 17.7926 11.5 18.0202 11.5 18.25C11.5 18.4798 11.5453 18.7074 11.6332 18.9197C11.7212 19.132 11.8501 19.3249 12.0126 19.4874C12.1751 19.6499 12.368 19.7788 12.5803 19.8668C12.7926 19.9547 13.0202 20 13.25 20C13.5808 19.9996 13.9047 19.9055 14.1842 19.7285C14.4637 19.5515 14.6873 19.2989 14.8291 19H15.75C17.7279 19 19.3569 17.4464 19.4873 15.5H19.5C20.6045 15.5 21.5 14.6045 21.5 13.5V12.5C21.5 11.3955 20.6045 10.5 19.5 10.5V10.25C19.5 9.52117 19.3545 8.87372 19.209 8.4082C19.5002 8.24603 19.7333 7.99364 19.8701 7.68359C20.0491 7.27709 20.0426 6.81452 19.8516 6.41602C18.5096 3.60902 15.7385 2 12.25 2ZM9.5 12C9.23478 12 8.98043 12.1054 8.79289 12.2929C8.60536 12.4804 8.5 12.7348 8.5 13C8.5 13.2652 8.60536 13.5196 8.79289 13.7071C8.98043 13.8946 9.23478 14 9.5 14C9.76522 14 10.0196 13.8946 10.2071 13.7071C10.3946 13.5196 10.5 13.2652 10.5 13C10.5 12.7348 10.3946 12.4804 10.2071 12.2929C10.0196 12.1054 9.76522 12 9.5 12ZM14.5 12C14.2388 12.0006 13.9882 12.1033 13.8017 12.2863C13.6153 12.4692 13.5078 12.7178 13.5024 12.979C13.4969 13.2401 13.5938 13.4931 13.7724 13.6837C13.951 13.8743 14.1971 13.9875 14.458 13.999C14.472 13.9996 14.486 14 14.5 14C14.7652 14 15.0196 13.8946 15.2071 13.7071C15.3946 13.5196 15.5 13.2652 15.5 13C15.5 12.7348 15.3946 12.4804 15.2071 12.2929C15.0196 12.1054 14.7652 12 14.5 12Z" fill="#6CB14F"/>
</g>
</svg>
