<svg width="16" height="16" viewBox="0 0 16 16" fill="none" xmlns="http://www.w3.org/2000/svg">
<g id="percent-circle" clip-path="url(#clip0_300_4159)">
<g id="elements">
<path id="Subtract" fill-rule="evenodd" clip-rule="evenodd" d="M0.833344 8.00001C0.833344 4.04197 4.04197 0.833344 8.00001 0.833344C11.9581 0.833344 15.1667 4.04197 15.1667 8.00001C15.1667 11.9581 11.9581 15.1667 8.00001 15.1667C4.04197 15.1667 0.833344 11.9581 0.833344 8.00001ZM4.83334 6.00001C4.83334 5.35568 5.35568 4.83334 6.00001 4.83334C6.64434 4.83334 7.16668 5.35568 7.16668 6.00001C7.16668 6.64434 6.64434 7.16668 6.00001 7.16668C5.35568 7.16668 4.83334 6.64434 4.83334 6.00001ZM8.83334 10C8.83334 9.35568 9.35568 8.83334 10 8.83334C10.6443 8.83334 11.1667 9.35568 11.1667 10C11.1667 10.6443 10.6443 11.1667 10 11.1667C9.35568 11.1667 8.83334 10.6443 8.83334 10ZM5.8048 11.1381L11.1381 5.8048L10.1953 4.86199L4.86199 10.1953L5.8048 11.1381Z" fill="#FF9F38"/>
</g>
</g>
<defs>
<clipPath id="clip0_300_4159">
<rect width="16" height="16" fill="white"/>
</clipPath>
</defs>
</svg>
