<svg width="16" height="17" viewBox="0 0 16 17" fill="none" xmlns="http://www.w3.org/2000/svg">
<g id="sort">
<mask id="mask0_300_4226" style="mask-type:alpha" maskUnits="userSpaceOnUse" x="0" y="0" width="16" height="17">
<rect id="Bounding box" y="0.5" width="16" height="16" fill="#D9D9D9"/>
</mask>
<g mask="url(#mask0_300_4226)">
<g id="sort_2">
<path d="M5.33333 12.5H2.66667C2.47778 12.5 2.31956 12.436 2.192 12.308C2.064 12.1804 2 12.0222 2 11.8333C2 11.6444 2.064 11.4862 2.192 11.3587C2.31956 11.2307 2.47778 11.1667 2.66667 11.1667H5.33333C5.52222 11.1667 5.68067 11.2307 5.80867 11.3587C5.93622 11.4862 6 11.6444 6 11.8333C6 12.0222 5.93622 12.1804 5.80867 12.308C5.68067 12.436 5.52222 12.5 5.33333 12.5ZM13.3333 5.83333H2.66667C2.47778 5.83333 2.31956 5.76956 2.192 5.642C2.064 5.514 2 5.35556 2 5.16667C2 4.97778 2.064 4.81933 2.192 4.69133C2.31956 4.56378 2.47778 4.5 2.66667 4.5H13.3333C13.5222 4.5 13.6804 4.56378 13.808 4.69133C13.936 4.81933 14 4.97778 14 5.16667C14 5.35556 13.936 5.514 13.808 5.642C13.6804 5.76956 13.5222 5.83333 13.3333 5.83333ZM9.33333 9.16667H2.66667C2.47778 9.16667 2.31956 9.10267 2.192 8.97467C2.064 8.84711 2 8.68889 2 8.5C2 8.31111 2.064 8.15267 2.192 8.02467C2.31956 7.89711 2.47778 7.83333 2.66667 7.83333H9.33333C9.52222 7.83333 9.68067 7.89711 9.80867 8.02467C9.93622 8.15267 10 8.31111 10 8.5C10 8.68889 9.93622 8.84711 9.80867 8.97467C9.68067 9.10267 9.52222 9.16667 9.33333 9.16667Z" fill="#858585"/>
</g>
</g>
</g>
</svg>
