<svg width="16" height="16" viewBox="0 0 16 16" fill="none" xmlns="http://www.w3.org/2000/svg">
<g id="u:info-circle">
<path id="Vector" d="M8.00001 7.33334C7.8232 7.33334 7.65363 7.40358 7.52861 7.52861C7.40358 7.65363 7.33335 7.8232 7.33335 8.00001V10.6667C7.33335 10.8435 7.40358 11.0131 7.52861 11.1381C7.65363 11.2631 7.8232 11.3333 8.00001 11.3333C8.17682 11.3333 8.34639 11.2631 8.47142 11.1381C8.59644 11.0131 8.66668 10.8435 8.66668 10.6667V8.00001C8.66668 7.8232 8.59644 7.65363 8.47142 7.52861C8.34639 7.40358 8.17682 7.33334 8.00001 7.33334ZM8.25335 4.72001C8.09104 4.65333 7.90899 4.65333 7.74668 4.72001C7.66485 4.75174 7.59008 4.79932 7.52668 4.86001C7.46779 4.92481 7.42044 4.99922 7.38668 5.08001C7.34936 5.15913 7.33109 5.24589 7.33335 5.33334C7.33284 5.42108 7.34966 5.50806 7.38283 5.58928C7.41601 5.67051 7.46489 5.74438 7.52668 5.80668C7.59148 5.86556 7.66589 5.91292 7.74668 5.94668C7.84768 5.98817 7.95732 6.00422 8.06598 5.99342C8.17463 5.98262 8.27897 5.94529 8.36982 5.88472C8.46067 5.82416 8.53526 5.7422 8.58702 5.64606C8.63878 5.54992 8.66614 5.44253 8.66668 5.33334C8.66422 5.15683 8.59517 4.98777 8.47335 4.86001C8.40994 4.79932 8.33518 4.75174 8.25335 4.72001ZM8.00001 1.33334C6.68147 1.33334 5.39254 1.72434 4.29621 2.45688C3.19988 3.18942 2.3454 4.23061 1.84082 5.44879C1.33623 6.66696 1.20421 8.00741 1.46144 9.30061C1.71868 10.5938 2.35362 11.7817 3.28597 12.7141C4.21832 13.6464 5.4062 14.2813 6.69941 14.5386C7.99262 14.7958 9.33306 14.6638 10.5512 14.1592C11.7694 13.6546 12.8106 12.8001 13.5431 11.7038C14.2757 10.6075 14.6667 9.31855 14.6667 8.00001C14.6667 7.12453 14.4942 6.25762 14.1592 5.44879C13.8242 4.63995 13.3331 3.90502 12.7141 3.28596C12.095 2.66691 11.3601 2.17584 10.5512 1.84081C9.7424 1.50578 8.87549 1.33334 8.00001 1.33334ZM8.00001 13.3333C6.94518 13.3333 5.91403 13.0205 5.03697 12.4345C4.15991 11.8485 3.47632 11.0155 3.07266 10.041C2.66899 9.06645 2.56337 7.99409 2.76916 6.95953C2.97495 5.92496 3.4829 4.97465 4.22878 4.22877C4.97466 3.48289 5.92497 2.97494 6.95953 2.76916C7.9941 2.56337 9.06645 2.66899 10.041 3.07265C11.0155 3.47632 11.8485 4.15991 12.4345 5.03697C13.0206 5.91403 13.3333 6.94518 13.3333 8.00001C13.3333 9.4145 12.7714 10.7711 11.7712 11.7712C10.7711 12.7714 9.4145 13.3333 8.00001 13.3333Z" fill="#84818A"/>
</g>
</svg>
