<svg width="12" height="12" viewBox="0 0 12 12" fill="none" xmlns="http://www.w3.org/2000/svg">
<g id="user-list" clip-path="url(#clip0_300_5103)">
<g id="elements">
<path id="Vector" d="M2.54034 7.64825C1.93121 8.01681 0.334088 8.76936 1.30684 9.71106C1.78202 10.1711 2.31125 10.5001 2.97662 10.5001H6.77338C7.43875 10.5001 7.96798 10.1711 8.44316 9.71106C9.41591 8.76936 7.81879 8.01681 7.20965 7.64825C5.78124 6.784 3.96876 6.784 2.54034 7.64825Z" stroke="#84818A" stroke-width="0.857143" stroke-linecap="round" stroke-linejoin="round"/>
<path id="Ellipse 1382" d="M6.75 3.50006C6.75 4.60463 5.85457 5.50006 4.75 5.50006C3.64543 5.50006 2.75 4.60463 2.75 3.50006C2.75 2.39549 3.64543 1.50006 4.75 1.50006C5.85457 1.50006 6.75 2.39549 6.75 3.50006Z" stroke="#84818A" stroke-width="0.857143"/>
<path id="Vector 6598" d="M8.5 2.50006L11 2.50006" stroke="#84818A" stroke-width="0.857143" stroke-linecap="round" stroke-linejoin="round"/>
<path id="Vector 6599" d="M8.5 4.00006L11 4.00006" stroke="#84818A" stroke-width="0.857143" stroke-linecap="round" stroke-linejoin="round"/>
<path id="Vector 6600" d="M10 5.50006L11 5.50006" stroke="#84818A" stroke-width="0.857143" stroke-linecap="round" stroke-linejoin="round"/>
</g>
</g>
<defs>
<clipPath id="clip0_300_5103">
<rect width="12" height="12" fill="white"/>
</clipPath>
</defs>
</svg>
